<?xml version="1.0" encoding="UTF-8"?> <svg xmlns="http://www.w3.org/2000/svg" xmlns:xlink="http://www.w3.org/1999/xlink" width="177px" height="80px" viewBox="0 0 177 80" version="1.1"><title>SQA_Logo_COLOUR-black-text_TEST FONT SIZE (1)</title><defs><linearGradient x1="-11.7711246%" y1="49.9997258%" x2="136.640401%" y2="49.9997258%" id="linearGradient-1"><stop stop-color="#F58220" offset="0%"></stop><stop stop-color="#EF4136" offset="35%"></stop><stop stop-color="#94070A" offset="77.44%"></stop></linearGradient><linearGradient x1="-11.7395524%" y1="49.8085445%" x2="136.498353%" y2="50.2674674%" id="linearGradient-2"><stop stop-color="#F58220" offset="0%"></stop><stop stop-color="#EF4136" offset="35.13%"></stop><stop stop-color="#94070A" offset="77.44%"></stop></linearGradient><linearGradient x1="-18.0710995%" y1="50.0002143%" x2="99.1250223%" y2="50.0002143%" id="linearGradient-3"><stop stop-color="#F58220" offset="0%"></stop><stop stop-color="#EF4136" offset="35%"></stop><stop stop-color="#94070A" offset="100%"></stop></linearGradient><linearGradient x1="-14.5354293%" y1="49.9998648%" x2="168.370521%" y2="49.9998648%" id="linearGradient-4"><stop stop-color="#F58220" offset="0%"></stop><stop stop-color="#EF4136" offset="35%"></stop><stop stop-color="#94070A" offset="77.44%"></stop></linearGradient><linearGradient x1="50.0001758%" y1="-56.7990506%" x2="50.0001758%" y2="99.8605837%" id="linearGradient-5"><stop stop-color="#F58220" offset="0%"></stop><stop stop-color="#EF4136" offset="35%"></stop><stop stop-color="#94070A" offset="100%"></stop></linearGradient><linearGradient x1="14.2099741%" y1="14.2120962%" x2="93.6887527%" y2="93.6909927%" id="linearGradient-6"><stop stop-color="#F58220" offset="0%"></stop><stop stop-color="#EF4136" offset="35%"></stop><stop stop-color="#94070A" offset="100%"></stop></linearGradient><linearGradient x1="13.9721822%" y1="13.975209%" x2="92.6442779%" y2="92.6473047%" id="linearGradient-7"><stop stop-color="#F58220" offset="0%"></stop><stop stop-color="#EF4136" offset="35%"></stop><stop stop-color="#94070A" offset="89.11%"></stop></linearGradient><linearGradient x1="12.7705133%" y1="12.77426%" x2="93.2660172%" y2="93.269764%" id="linearGradient-8"><stop stop-color="#F58220" offset="0%"></stop><stop stop-color="#EF4136" offset="35%"></stop><stop stop-color="#94070A" offset="100%"></stop></linearGradient></defs><g id="Symbols" stroke="none" stroke-width="1" fill="none" fill-rule="evenodd"><g id="Header" transform="translate(-111.000000, -20.000000)" fill-rule="nonzero"><g id="SQA_Logo_COLOUR-black-text_TEST-FONT-SIZE-(1)" transform="translate(111.000000, 20.000000)"><g id="Group" transform="translate(84.000000, 15.000000)" fill="#000000"><path d="M3.19954128,14.2205 C2.37761468,13.8691667 1.74623853,13.4045 1.31394495,12.8293333 C0.878807339,12.2541667 0.648440367,11.6336667 0.62,10.9706667 C0.62,10.863 0.66266055,10.7638333 0.753669725,10.676 C0.841834862,10.5881667 0.94706422,10.5428333 1.0693578,10.5428333 L2.11027523,10.5428333 C2.36908257,10.5428333 2.54541284,10.6788333 2.63926606,10.9508333 C2.76155963,11.5203333 3.11137615,12.0076667 3.69155963,12.4156667 C4.26889908,12.8236667 5.08229358,13.0248333 6.12889908,13.0248333 C7.25798165,13.0248333 8.10834862,12.8236667 8.68,12.4241667 C9.25165138,12.0246667 9.53605505,11.4665 9.53605505,10.7468333 C9.53605505,10.285 9.39669725,9.91383333 9.11798165,9.62766667 C8.83926606,9.34433333 8.42688073,9.09216667 7.88366972,8.87683333 C7.34045872,8.65866667 6.52422018,8.3895 5.43495413,8.06366667 C4.37412844,7.76616667 3.52944954,7.446 2.90376147,7.10883333 C2.27807339,6.77166667 1.80880734,6.3495 1.4959633,5.848 C1.18311927,5.3465 1.02669725,4.7175 1.02669725,3.95816667 C1.02669725,3.22716667 1.22862385,2.56983333 1.62963303,1.98616667 C2.0306422,1.4025 2.60513761,0.946333333 3.35311927,0.614833333 C4.10110092,0.283333333 4.9912844,0.116166667 6.02651376,0.116166667 C7.08733945,0.116166667 8.00027523,0.303166667 8.75963303,0.674333333 C9.52183486,1.04833333 10.0991743,1.51866667 10.4944954,2.08816667 C10.8898165,2.65766667 11.1002752,3.22716667 11.1258716,3.79666667 C11.1258716,3.90433333 11.0888991,4.00066667 11.0149541,4.08 C10.9410092,4.16216667 10.8357798,4.20183333 10.6992661,4.20183333 L9.61853211,4.20183333 C9.33412844,4.20183333 9.15495413,4.0715 9.08669725,3.81366667 C9.00422018,3.24416667 8.68568807,2.77383333 8.12825688,2.39983333 C7.57082569,2.02583333 6.87119266,1.84166667 6.02651376,1.84166667 C5.10220183,1.84166667 4.37412844,2.01733333 3.84229358,2.3715 C3.31045872,2.72566667 3.0459633,3.24416667 3.0459633,3.9355 C3.0459633,4.39733333 3.17110092,4.777 3.42422018,5.0745 C3.67449541,5.372 4.0612844,5.63266667 4.57605505,5.8565 C5.09366972,6.08033333 5.84733945,6.33533333 6.83990826,6.61866667 C7.99743119,6.93033333 8.90752294,7.25333333 9.57302752,7.58483333 C10.2385321,7.91633333 10.7362385,8.33 11.0633028,8.82583333 C11.390367,9.32166667 11.5524771,9.94783333 11.5524771,10.7043333 C11.5524771,11.9651667 11.0633028,12.954 10.0821101,13.6736667 C9.10091743,14.3933333 7.78412844,14.7503333 6.12321101,14.7503333 C4.99981651,14.7503333 4.02431193,14.5718333 3.19954128,14.2205 Z" id="Path"></path><path d="M17.1580734,14.4131667 C17.0699083,14.3253333 17.0244037,14.212 17.0244037,14.0788333 L17.0244037,9.282 L12.1070642,0.988833333 C12.1070642,0.9605 12.0985321,0.920833333 12.087156,0.867 C12.0587156,0.813166667 12.0473394,0.765 12.0473394,0.725333333 C12.0473394,0.617666667 12.087156,0.521333333 12.169633,0.442 C12.2521101,0.359833333 12.3459633,0.320166667 12.4540367,0.320166667 L13.5148624,0.320166667 C13.7452294,0.320166667 13.9244037,0.436333333 14.0466972,0.665833333 L18.0255046,7.25333333 L22.0043119,0.665833333 C22.1550459,0.436333333 22.3370642,0.320166667 22.556055,0.320166667 L23.5969725,0.320166667 C23.7192661,0.320166667 23.8216514,0.362666667 23.9041284,0.442 C23.9866055,0.524166667 24.026422,0.617666667 24.026422,0.725333333 C24.026422,0.793333333 23.9979817,0.881166667 23.943945,0.988833333 L19.0465138,9.282 L19.0465138,14.0788333 C19.0465138,14.2148333 18.9981651,14.3253333 18.9043119,14.4131667 C18.8076147,14.501 18.6938532,14.5436327 18.5573394,14.5436327 L17.4965138,14.5436327 C17.357156,14.5463333 17.2462385,14.5038333 17.1580734,14.4131667 Z" id="Path"></path><path d="M26.0314679,14.4131667 C25.9433028,14.3253333 25.9006422,14.212 25.9006422,14.0788333 L25.9006422,0.804666667 C25.9006422,0.6545 25.9433028,0.5355 26.0314679,0.447666667 C26.119633,0.359833333 26.2333945,0.3145 26.3670642,0.3145 L31,0.3145 C33.0533945,0.3145 34.5351376,0.770666667 35.4480734,1.68583333 C36.3581651,2.601 36.8359633,3.978 36.8757798,5.8225 C36.89,6.21633333 36.8956881,6.74333333 36.8956881,7.40916667 C36.8956881,8.07216667 36.887156,8.60766667 36.8757798,9.01566667 C36.8359633,10.302 36.6198165,11.3503333 36.2330275,12.1578333 C35.8462385,12.9653333 35.2376147,13.5631667 34.407156,13.957 C33.5766972,14.3508333 32.476055,14.5463333 31.1023853,14.5463333 L26.3670642,14.5463333 C26.2333945,14.5463333 26.119633,14.5038333 26.0314679,14.4131667 Z M31,12.818 C31.9385321,12.818 32.6836697,12.6905 33.2325688,12.4326667 C33.7843119,12.1748333 34.1853211,11.764 34.4355963,11.203 C34.6858716,10.642 34.8252294,9.8855 34.8536697,8.93633333 C34.8821101,8.12316667 34.8934862,7.616 34.8934862,7.412 C34.8934862,7.19383333 34.8792661,6.69233333 34.8536697,5.9075 C34.8252294,4.56733333 34.5066972,3.587 33.8952294,2.96933333 C33.2837615,2.3545 32.2826606,2.04566667 30.8947706,2.04566667 L27.9,2.04566667 L27.9,12.818 L31,12.818 L31,12.818 Z" id="Shape"></path><path d="M39.5804587,14.4131667 C39.4922936,14.3253333 39.449633,14.212 39.449633,14.0788333 L39.449633,0.804666667 C39.449633,0.6545 39.4922936,0.5355 39.5804587,0.447666667 C39.6686239,0.359833333 39.7823853,0.3145 39.916055,0.3145 L40.8545872,0.3145 C41.0991743,0.3145 41.2698165,0.410833333 41.3636697,0.597833333 L48.1381651,10.965 L48.1381651,0.804666667 C48.1381651,0.6545 48.1836697,0.5355 48.2718349,0.447666667 C48.36,0.359833333 48.4737615,0.3145 48.6074312,0.3145 L49.5857798,0.3145 C49.7365138,0.3145 49.8531193,0.359833333 49.9412844,0.447666667 C50.0294495,0.5355 50.0749541,0.6545 50.0749541,0.804666667 L50.0749541,14.059 C50.0749541,14.195 50.0294495,14.3083333 49.9412844,14.4046667 C49.8531193,14.501 49.7393578,14.5463333 49.6056881,14.5463333 L48.6273394,14.5463333 C48.4225688,14.5463333 48.2604587,14.4528333 48.1381651,14.263 L41.386422,3.995 L41.386422,14.0788333 C41.386422,14.2148333 41.3380734,14.3253333 41.2442202,14.4131667 C41.1475229,14.501 41.0337615,14.5435 40.8972477,14.5435 L39.9188991,14.5435 C39.7823853,14.5463333 39.6686239,14.5038333 39.5804587,14.4131667 Z" id="Path"></path><path d="M53.2517431,14.4131667 C53.163578,14.3253333 53.1209174,14.212 53.1209174,14.0788333 L53.1209174,0.804666667 C53.1209174,0.6545 53.163578,0.5355 53.2517431,0.447666667 C53.3399083,0.359833333 53.4536697,0.3145 53.5873394,0.3145 L62.0142202,0.3145 C62.1507339,0.3145 62.2616514,0.359833333 62.3498165,0.447666667 C62.4379817,0.5355 62.4806422,0.6545 62.4806422,0.804666667 L62.4806422,1.57816667 C62.4806422,1.71416667 62.4408257,1.82466667 62.3583486,1.9125 C62.2758716,2.00033333 62.1621101,2.04566667 62.0113761,2.04566667 L55.0747706,2.04566667 L55.0747706,6.49683333 L61.5648624,6.49683333 C61.7013761,6.49683333 61.8122936,6.54216667 61.9004587,6.62716667 C61.9886239,6.715 62.0312844,6.834 62.0312844,6.98416667 L62.0312844,7.73783333 C62.0312844,7.87383333 61.9886239,7.98433333 61.9004587,8.07216667 C61.8122936,8.16 61.6985321,8.20533333 61.5648624,8.20533333 L55.0747706,8.20533333 L55.0747706,12.818 L62.1763303,12.818 C62.3270642,12.818 62.4408257,12.8576667 62.5233028,12.9398333 C62.6057798,13.022 62.6455963,13.1353333 62.6455963,13.2855 L62.6455963,14.0788333 C62.6455963,14.2148333 62.6000917,14.3253333 62.5119266,14.4131667 C62.4237615,14.501 62.31,14.5436327 62.1763303,14.5436327 L53.5844954,14.5436327 C53.4508257,14.5463333 53.3399083,14.5038333 53.2517431,14.4131667 Z" id="Path"></path><path d="M68.9223853,14.4131667 C68.8342202,14.3253333 68.7887156,14.212 68.7887156,14.0788333 L68.7887156,9.282 L63.8713761,0.988833333 C63.8713761,0.9605 63.862844,0.920833333 63.8514679,0.867 C63.8230275,0.813166667 63.8116514,0.765 63.8116514,0.725333333 C63.8116514,0.617666667 63.8514679,0.521333333 63.933945,0.442 C64.016422,0.359833333 64.1102752,0.320166667 64.2183486,0.320166667 L65.2791743,0.320166667 C65.5095413,0.320166667 65.6887156,0.436333333 65.8110092,0.665833333 L69.7898165,7.25333333 L73.7686239,0.665833333 C73.9193578,0.436333333 74.1013761,0.320166667 74.320367,0.320166667 L75.3612844,0.320166667 C75.483578,0.320166667 75.5859633,0.362666667 75.6684404,0.442 C75.7509174,0.524166667 75.7907339,0.617666667 75.7907339,0.725333333 C75.7907339,0.793333333 75.7622936,0.881166667 75.7082569,0.988833333 L70.8108257,9.282 L70.8108257,14.0788333 C70.8108257,14.2148333 70.7624771,14.3253333 70.6686239,14.4131667 C70.5719266,14.501 70.4581651,14.5436327 70.3216514,14.5436327 L69.2608257,14.5436327 C69.1214679,14.5463333 69.0105505,14.5038333 68.9223853,14.4131667 Z" id="Path"></path><path d="M16.1569725,31.3876667 C15.1985321,30.447 14.7178899,29.019 14.7178899,27.1093333 L14.7178899,18.8558333 C14.7178899,18.7056667 14.7605505,18.5895 14.8487156,18.4988333 C14.9368807,18.411 15.0506422,18.3685 15.187156,18.3685 L16.2280734,18.3685 C16.3788073,18.3685 16.4982569,18.411 16.586422,18.4988333 C16.6745872,18.5866667 16.7200917,18.7056667 16.7200917,18.8558333 L16.7200917,27.149 C16.7200917,28.4495 17.0244037,29.427 17.6387156,30.0758333 C18.2501835,30.7275 19.1147706,31.0505 20.229633,31.0505 C21.3444954,31.0505 22.2090826,30.7246667 22.8205505,30.0758333 C23.4320183,29.427 23.7391743,28.4495 23.7391743,27.149 L23.7391743,18.8558333 C23.7391743,18.7056667 23.7818349,18.5895 23.87,18.4988333 C23.9581651,18.411 24.0719266,18.3685 24.2055963,18.3685 L25.266422,18.3685 C25.4029358,18.3685 25.5138532,18.4166667 25.6020183,18.5101667 C25.6901835,18.6065 25.732844,18.7198333 25.732844,18.8558333 L25.732844,27.1093333 C25.732844,29.019 25.2550459,30.447 24.2937615,31.3876667 C23.3353211,32.3283333 21.9787156,32.8015 20.223945,32.8015 C18.4720183,32.8015 17.1154128,32.3311667 16.1569725,31.3876667 Z" id="Path"></path><path d="M27.123578,32.4756667 C27.0411009,32.3935 27.0012844,32.3 27.0012844,32.1923333 C27.0012844,32.0846667 27.0069725,32.0081667 27.0211927,31.9685 L32.0807339,18.8161667 C32.1888073,18.5186667 32.4077982,18.3685 32.7348624,18.3685 L34.1227523,18.3685 C34.4498165,18.3685 34.6659633,18.5186667 34.7768807,18.8161667 L39.8165138,31.9685 L39.8563303,32.1923333 C39.8563303,32.3 39.8165138,32.3963333 39.7340367,32.4756667 C39.6515596,32.5578333 39.5577064,32.5975 39.449633,32.5975 L38.4087156,32.5975 C38.2579817,32.5975 38.1442202,32.5606667 38.0617431,32.487 C37.9792661,32.4133333 37.9252294,32.334 37.899633,32.2518333 L36.7762385,29.3646667 L30.0842202,29.3646667 L28.9608257,32.2518333 C28.9323853,32.334 28.8755046,32.4105 28.7873394,32.487 C28.6991743,32.5606667 28.5854128,32.5975 28.4517431,32.5975 L27.4108257,32.5975 C27.2999083,32.5975 27.206055,32.5578333 27.123578,32.4756667 Z M36.1846789,27.6165 L33.4288073,20.4 L30.6757798,27.6165 L36.1846789,27.6165 Z" id="Shape"></path><path d="M41.6622936,32.4643333 C41.5741284,32.3765 41.5314679,32.2631667 41.5314679,32.13 L41.5314679,18.8558333 C41.5314679,18.7056667 41.5741284,18.5895 41.6622936,18.4988333 C41.7504587,18.411 41.8642202,18.3685 41.9978899,18.3685 L42.936422,18.3685 C43.1810092,18.3685 43.3516514,18.4648333 43.4455046,18.6518333 L50.22,29.019 L50.22,18.8558333 C50.22,18.7056667 50.2655046,18.5895 50.3536697,18.4988333 C50.4418349,18.411 50.5555963,18.3685 50.6892661,18.3685 L51.6676147,18.3685 C51.8183486,18.3685 51.9349541,18.411 52.0231193,18.4988333 C52.1112844,18.5866667 52.156789,18.7056667 52.156789,18.8558333 L52.156789,32.1101667 C52.156789,32.2461667 52.1112844,32.3623333 52.0231193,32.4558333 C51.9349541,32.5521667 51.8211927,32.5975 51.6875229,32.5975 L50.7091743,32.5975 C50.5044037,32.5975 50.3422936,32.5011667 50.22,32.3141667 L43.4654128,22.049 L43.4654128,32.13 C43.4654128,32.266 43.4170642,32.3765 43.323211,32.4643333 C43.2265138,32.5521667 43.1127523,32.5975 42.9762385,32.5975 L41.9978899,32.5975 C41.8613761,32.5975 41.7504587,32.5521667 41.6622936,32.4643333 Z" id="Path"></path><path d="M58.4534862,32.4643333 C58.3653211,32.3765 58.3226606,32.2631667 58.3226606,32.13 L58.3226606,20.179 L54.406422,20.179 C54.2699083,20.179 54.1589908,20.1336667 54.0708257,20.0458333 C53.9826606,19.958 53.937156,19.8446667 53.937156,19.7115 L53.937156,18.8586667 C53.937156,18.7226667 53.9798165,18.6093333 54.0708257,18.513 C54.1589908,18.4195 54.2727523,18.3713333 54.406422,18.3713333 L64.2411009,18.3713333 C64.3918349,18.3713333 64.5084404,18.4138333 64.5994495,18.5016667 C64.6876147,18.5895 64.7331193,18.7085 64.7331193,18.8586667 L64.7331193,19.7115 C64.7331193,19.8475 64.6847706,19.958 64.5909174,20.0458333 C64.4942202,20.1336667 64.3804587,20.179 64.243945,20.179 L60.3476147,20.179 L60.3476147,32.13 C60.3476147,32.266 60.2992661,32.3765 60.2054128,32.4643333 C60.1115596,32.5521667 59.9949541,32.5975 59.8584404,32.5975 L58.7976147,32.5975 C58.6554128,32.5975 58.5416514,32.5521667 58.4534862,32.4643333 Z" id="Path"></path><path d="M67.8188991,31.3876667 C66.8604587,30.447 66.3798165,29.019 66.3798165,27.1093333 L66.3798165,18.8558333 C66.3798165,18.7056667 66.4224771,18.5895 66.5106422,18.4988333 C66.5988073,18.411 66.7125688,18.3685 66.8490826,18.3685 L67.89,18.3685 C68.0407339,18.3685 68.1601835,18.411 68.2483486,18.4988333 C68.3365138,18.5866667 68.3820183,18.7056667 68.3820183,18.8558333 L68.3820183,27.149 C68.3820183,28.4495 68.6863303,29.427 69.3006422,30.0758333 C69.9121101,30.7275 70.7766972,31.0505 71.8915596,31.0505 C73.006422,31.0505 73.8710092,30.7246667 74.4824771,30.0758333 C75.093945,29.427 75.4011009,28.4495 75.4011009,27.149 L75.4011009,18.8558333 C75.4011009,18.7056667 75.4437615,18.5895 75.5319266,18.4988333 C75.6200917,18.411 75.7338532,18.3685 75.8675229,18.3685 L76.9283486,18.3685 C77.0648624,18.3685 77.1757798,18.4166667 77.263945,18.5101667 C77.3521101,18.6065 77.3947706,18.7198333 77.3947706,18.8558333 L77.3947706,27.1093333 C77.3947706,29.019 76.9169725,30.447 75.9556881,31.3876667 C74.9972477,32.3283333 73.6406422,32.8015 71.8858716,32.8015 C70.1311009,32.8015 68.7773394,32.3311667 67.8188991,31.3876667 Z" id="Path"></path><path d="M80.4293578,32.4643333 C80.3411927,32.3765 80.2985321,32.2631667 80.2985321,32.13 L80.2985321,18.8558333 C80.2985321,18.7056667 80.3411927,18.5895 80.4293578,18.4988333 C80.5175229,18.411 80.6312844,18.3685 80.7649541,18.3685 L81.7859633,18.3685 C82.0049541,18.3685 82.1812844,18.4761667 82.3177982,18.6943333 L86.6236697,26.9081667 L90.9693578,18.6943333 C90.9977982,18.6121667 91.0546789,18.5385 91.142844,18.4705 C91.2310092,18.4025 91.3447706,18.3685 91.4784404,18.3685 L92.4795413,18.3685 C92.6302752,18.3685 92.7468807,18.411 92.8350459,18.4988333 C92.923211,18.5866667 92.9687156,18.7056667 92.9687156,18.8558333 L92.9687156,32.13 C92.9687156,32.266 92.920367,32.3765 92.8265138,32.4643333 C92.7298165,32.5521667 92.616055,32.5975 92.4795413,32.5975 L91.4784404,32.5975 C91.3419266,32.5975 91.2310092,32.5521667 91.142844,32.4643333 C91.0546789,32.3765 91.0120183,32.2631667 91.0120183,32.13 L91.0120183,22.1283333 L87.6048624,28.7555 C87.4683486,29.0388333 87.2493578,29.1833333 86.9507339,29.1833333 L86.3193578,29.1833333 C86.0207339,29.1833333 85.8017431,29.0416667 85.6680734,28.7555 L82.2410092,22.1283333 L82.2410092,32.13 C82.2410092,32.266 82.1983486,32.3765 82.1101835,32.4643333 C82.0220183,32.5521667 81.9082569,32.5975 81.7745872,32.5975 L80.7734862,32.5975 C80.6284404,32.5975 80.5175229,32.5521667 80.4293578,32.4643333 Z" id="Path"></path><path d="M0.29293578,50.5268333 C0.210458716,50.4446667 0.170642202,50.3511667 0.170642202,50.2435 C0.170642202,50.1358333 0.176330275,50.0593333 0.190550459,50.0196667 L5.25009174,36.8673333 C5.35816514,36.5698333 5.57715596,36.4196667 5.90422018,36.4196667 L7.29211009,36.4196667 C7.61917431,36.4196667 7.8353211,36.5698333 7.94623853,36.8673333 L12.9858716,50.0196667 L13.0256881,50.2435 C13.0256881,50.3511667 12.9858716,50.4475 12.9033945,50.5268333 C12.8209174,50.609 12.7270642,50.6486667 12.6189908,50.6486667 L11.5780734,50.6486667 C11.4273394,50.6486667 11.313578,50.6118333 11.2311009,50.5381667 C11.1486239,50.4645 11.0945872,50.3851667 11.0689908,50.303 L9.94559633,47.4158333 L3.25357798,47.4158333 L2.13018349,50.303 C2.10174312,50.3851667 2.04486239,50.4616667 1.95669725,50.5381667 C1.86853211,50.6118333 1.75477064,50.6486667 1.62110092,50.6486667 L0.580183486,50.6486667 C0.469266055,50.6486667 0.375412844,50.609 0.29293578,50.5268333 Z M9.3540367,45.6676667 L6.59816514,38.4511667 L3.84513761,45.6676667 L9.3540367,45.6676667 Z" id="Shape"></path><path d="M15.423211,49.3878333 C14.4789908,48.4131667 13.9699083,47.0645 13.9044954,45.3418333 C13.8902752,44.9763333 13.8845872,44.3785 13.8845872,43.554 C13.8845872,42.7125 13.8931193,42.1033333 13.9044954,41.7236667 C13.9727523,40.0151667 14.4818349,38.6721667 15.4345872,37.689 C16.3873394,36.7058333 17.7666972,36.2156667 19.5755046,36.2156667 C20.7870642,36.2156667 21.8137615,36.4281667 22.6555963,36.856 C23.4974312,37.2838333 24.1373394,37.842 24.5724771,38.5333333 C25.0076147,39.2246667 25.2465138,39.9613333 25.2863303,40.749 L25.2863303,40.7915 C25.2863303,40.8991667 25.2408257,40.9926667 25.1526606,41.0663333 C25.0644954,41.14 24.9649541,41.1768333 24.8568807,41.1768333 L23.7334862,41.1768333 C23.4604587,41.1768333 23.2926606,41.021 23.2244037,40.7093333 C22.9940367,39.6921667 22.5788073,38.9781667 21.9787156,38.5645 C21.3814679,38.1508333 20.5794495,37.944 19.5726606,37.944 C17.2320183,37.944 16.0233028,39.2388333 15.9408257,41.8256667 C15.9266055,42.1911667 15.9209174,42.755 15.9209174,43.5115 C15.9209174,44.2708333 15.9294495,44.846 15.9408257,45.2398333 C16.0233028,47.8295 17.2320183,49.1215 19.5726606,49.1215 C20.5794495,49.1215 21.3843119,48.9146667 21.9900917,48.501 C22.5958716,48.0873333 23.0082569,47.3733333 23.2244037,46.3561667 C23.2670642,46.1805 23.326789,46.0586667 23.4092661,45.9906667 C23.4917431,45.9226667 23.5998165,45.8886667 23.7363303,45.8886667 L24.8597248,45.8886667 C24.9820183,45.8886667 25.0872477,45.9255 25.1754128,45.9991667 C25.263578,46.0728333 25.3005505,46.172 25.2863303,46.2938333 C25.2465138,47.0928333 25.0076147,47.838 24.5724771,48.5293333 C24.1373394,49.2206667 23.4974312,49.7788333 22.6555963,50.2066667 C21.8109174,50.6345 20.7842202,50.8470489 19.5755046,50.8470489 C17.7524771,50.8526667 16.3674312,50.3653333 15.423211,49.3878333 Z" id="Path"></path><path d="M26.1253211,50.5268333 C26.042844,50.4446667 26.0030275,50.3511667 26.0030275,50.2435 C26.0030275,50.1358333 26.0087156,50.0593333 26.0229358,50.0196667 L31.0824771,36.8673333 C31.1905505,36.5698333 31.4095413,36.4196667 31.7366055,36.4196667 L33.1244954,36.4196667 C33.4515596,36.4196667 33.6677064,36.5698333 33.7786239,36.8673333 L38.8182569,50.0196667 L38.8580734,50.2435 C38.8580734,50.3511667 38.8182569,50.4475 38.7357798,50.5268333 C38.6533028,50.609 38.5594495,50.6486667 38.4513761,50.6486667 L37.4104587,50.6486667 C37.2597248,50.6486667 37.1459633,50.6118333 37.0634862,50.5381667 C36.9810092,50.4645 36.9269725,50.3851667 36.9013761,50.303 L35.7779817,47.4158333 L29.0859633,47.4158333 L27.9625688,50.303 C27.9341284,50.3851667 27.8772477,50.4616667 27.7890826,50.5381667 C27.7009174,50.6146667 27.587156,50.6486667 27.4534862,50.6486667 L26.4125688,50.6486667 C26.3016514,50.6486667 26.2049541,50.609 26.1253211,50.5268333 Z M35.183578,45.6676667 L32.4277064,38.4511667 L29.6746789,45.6676667 L35.183578,45.6676667 Z" id="Shape"></path><path d="M40.6611927,50.5155 C40.5730275,50.4276667 40.530367,50.3143333 40.530367,50.1811667 L40.530367,36.907 C40.530367,36.7568333 40.5730275,36.6378333 40.6611927,36.55 C40.7493578,36.4621667 40.8631193,36.4168333 40.996789,36.4168333 L45.6297248,36.4168333 C47.6831193,36.4168333 49.1648624,36.873 50.0777982,37.7881667 C50.9878899,38.7033333 51.4656881,40.0803333 51.5055046,41.9248333 C51.5197248,42.3186667 51.5254128,42.8456667 51.5254128,43.5115 C51.5254128,44.1745 51.5168807,44.71 51.5055046,45.118 C51.4656881,46.4043333 51.2495413,47.4526667 50.8627523,48.2573333 C50.4759633,49.0648333 49.8673394,49.6626667 49.0368807,50.0565 C48.206422,50.4503333 47.1057798,50.6459661 45.7321101,50.6459661 L40.996789,50.6459661 C40.8631193,50.6486667 40.7493578,50.6061667 40.6611927,50.5155 Z M45.6297248,48.9203333 C46.5682569,48.9203333 47.3133945,48.79 47.8622936,48.5321667 C48.4140367,48.2743333 48.8150459,47.8663333 49.0653211,47.3025 C49.3155963,46.7415 49.4549541,45.985 49.4833945,45.0358333 C49.5118349,44.2226667 49.523211,43.7155 49.523211,43.5115 C49.523211,43.2961667 49.5089908,42.7946667 49.4833945,42.007 C49.4549541,40.6668333 49.136422,39.6865 48.5249541,39.0688333 C47.9134862,38.454 46.9123853,38.1451667 45.5244954,38.1451667 L42.5240367,38.1451667 L42.5240367,48.9175 L45.6297248,48.9175 L45.6297248,48.9203333 Z" id="Shape"></path><path d="M54.2101835,50.5155 C54.1220183,50.4276667 54.0793578,50.3143333 54.0793578,50.1811667 L54.0793578,36.907 C54.0793578,36.7568333 54.1220183,36.6378333 54.2101835,36.55 C54.2983486,36.4621667 54.4121101,36.4168333 54.5457798,36.4168333 L62.9726606,36.4168333 C63.1091743,36.4168333 63.2200917,36.4621667 63.3082569,36.55 C63.396422,36.6378333 63.4390826,36.7568333 63.4390826,36.907 L63.4390826,37.6805 C63.4390826,37.8165 63.3992661,37.927 63.316789,38.0148333 C63.2343119,38.1026667 63.1205505,38.148 62.9698165,38.148 L56.033211,38.148 L56.033211,42.5991667 L62.5233028,42.5991667 C62.6598165,42.5991667 62.7707339,42.6416667 62.8588991,42.7295 C62.9470642,42.8173333 62.9897248,42.9363333 62.9897248,43.0865 L62.9897248,43.8401667 C62.9897248,43.9761667 62.9470642,44.0866667 62.8588991,44.1745 C62.7707339,44.2623333 62.6569725,44.3048333 62.5233028,44.3048333 L56.033211,44.3048333 L56.033211,48.9203333 L63.1376147,48.9203333 C63.2883486,48.9203333 63.4021101,48.96 63.4845872,49.0421667 C63.5670642,49.1243333 63.6068807,49.2376667 63.6068807,49.3878333 L63.6068807,50.1811667 C63.6068807,50.3171667 63.5613761,50.4276667 63.473211,50.5155 C63.3850459,50.6033333 63.2712844,50.6486667 63.1376147,50.6486667 L54.5457798,50.6486667 C54.4121101,50.6486667 54.2983486,50.6061667 54.2101835,50.5155 Z" id="Path"></path><path d="M66.0641284,50.5155 C65.9759633,50.4276667 65.9333028,50.3143333 65.9333028,50.1811667 L65.9333028,36.907 C65.9333028,36.7568333 65.9759633,36.6378333 66.0641284,36.55 C66.1522936,36.4621667 66.266055,36.4168333 66.3997248,36.4168333 L67.4207339,36.4168333 C67.6397248,36.4168333 67.816055,36.5245 67.9525688,36.7426667 L72.2584404,44.9536667 L76.6041284,36.7426667 C76.6325688,36.6605 76.6894495,36.5868333 76.7776147,36.5188333 C76.8657798,36.4508333 76.9795413,36.4168333 77.113211,36.4168333 L78.1143119,36.4168333 C78.2650459,36.4168333 78.3816514,36.4621667 78.4698165,36.55 C78.5579817,36.6378333 78.6034862,36.7568333 78.6034862,36.907 L78.6034862,50.1811667 C78.6034862,50.3171667 78.5551376,50.4276667 78.4612844,50.5155 C78.3645872,50.6033333 78.2508257,50.6486667 78.1143119,50.6486667 L77.113211,50.6486667 C76.9766972,50.6486667 76.8657798,50.6061667 76.7776147,50.5155 C76.6894495,50.4276667 76.646789,50.3143333 76.646789,50.1811667 L76.646789,40.1795 L73.239633,46.8066667 C73.1031193,47.09 72.8841284,47.2345 72.5855046,47.2345 L71.9541284,47.2345 C71.6555046,47.2345 71.4365138,47.0928333 71.302844,46.8066667 L67.8757798,40.1795 L67.8757798,50.1811667 C67.8757798,50.3171667 67.8331193,50.4276667 67.7449541,50.5155 C67.656789,50.6033333 67.5430275,50.6486667 67.4093578,50.6486667 L66.4082569,50.6486667 C66.266055,50.6486667 66.1522936,50.6061667 66.0641284,50.5155 Z" id="Path"></path><path d="M85.5713761,50.5155 C85.483211,50.4276667 85.4377064,50.3143333 85.4377064,50.1811667 L85.4377064,45.3843333 L80.520367,37.0911667 C80.520367,37.0628333 80.5118349,37.0231667 80.5004587,36.9693333 C80.4720183,36.9155 80.4606422,36.8673333 80.4606422,36.8276667 C80.4606422,36.72 80.5004587,36.6236667 80.5829358,36.5443333 C80.6654128,36.4621667 80.7592661,36.4225 80.8673394,36.4225 L81.9281651,36.4225 C82.1585321,36.4225 82.3377064,36.5386667 82.46,36.7681667 L86.4388073,43.35 L90.4176147,36.7653333 C90.5683486,36.5358333 90.750367,36.4196667 90.9693578,36.4196667 L92.0102752,36.4196667 C92.1325688,36.4196667 92.2349541,36.4621667 92.3174312,36.5415 C92.3999083,36.6236667 92.4397248,36.7171667 92.4397248,36.8248333 C92.4397248,36.8928333 92.4112844,36.9806667 92.3572477,37.0883333 L87.4598165,45.3815 L87.4598165,50.1783333 C87.4598165,50.3143333 87.4114679,50.4248333 87.3176147,50.5126667 C87.2209174,50.6005 87.107156,50.6459661 86.9706422,50.6459661 L85.9098165,50.6459661 C85.7704587,50.6486667 85.6595413,50.6061667 85.5713761,50.5155 Z" id="Path"></path><path d="M12.323211,23.7745 C12.2691743,21.9441667 11.7373394,20.553 10.7305505,19.5981667 C9.72376147,18.6433333 8.37,18.1645 6.66926606,18.1645 C4.95431193,18.1645 3.59486239,18.6405 2.58807339,19.5981667 C1.5812844,20.553 1.04944954,21.947 0.995412844,23.7745 C0.981192661,24.1683333 0.975504587,24.7378333 0.975504587,25.483 C0.975504587,26.2281667 0.984036697,26.8033333 0.995412844,27.2113333 C1.04944954,29.0813333 1.56422018,30.481 2.53688073,31.4103333 C3.31614679,32.1555 4.35990826,32.5946667 5.65963303,32.742 L5.65963303,34.2266667 C5.65963303,34.3626667 5.70229358,34.4731667 5.79045872,34.561 C5.87862385,34.6488333 5.99238532,34.6941667 6.12605505,34.6941667 L7.20678899,34.6941667 C7.34330275,34.6941667 7.45422018,34.6516667 7.54238532,34.561 C7.63055046,34.4731667 7.67605505,34.3598333 7.67605505,34.2266667 L7.67605505,32.7391667 C8.96155963,32.5918333 9.99963303,32.1498333 10.7788991,31.4075 C11.7515596,30.4781667 12.2663303,29.0785 12.320367,27.2085 C12.3488073,26.3953333 12.3601835,25.8201667 12.3601835,25.4801667 C12.3630275,25.1316667 12.3488073,24.5621667 12.323211,23.7745 Z M10.2811927,27.1093333 C10.227156,28.4495 9.88018349,29.4468333 9.24027523,30.0985 C8.81651376,30.5291667 8.29321101,30.8153333 7.67889908,30.9598333 L7.67889908,29.8633333 C7.67889908,29.7273333 7.6333945,29.6168333 7.54522936,29.529 C7.45706422,29.4411667 7.34330275,29.3958333 7.20963303,29.3958333 L6.12889908,29.3958333 C5.99238532,29.3958333 5.88146789,29.4411667 5.79330275,29.529 C5.70513761,29.6168333 5.66247706,29.7301667 5.66247706,29.8633333 L5.66247706,30.9598333 C5.0453211,30.8153333 4.51917431,30.5291667 4.09256881,30.0985 C3.44697248,29.4496667 3.09715596,28.4523333 3.04311927,27.1093333 C3.02889908,26.7013333 3.02321101,26.1601667 3.02321101,25.483 C3.02321101,24.7916667 3.03174312,24.2505 3.04311927,23.8566667 C3.09715596,22.5165 3.44697248,21.5191667 4.09256881,20.8675 C4.73816514,20.2158333 5.59990826,19.8928333 6.67495413,19.8928333 C7.73577982,19.8928333 8.58899083,20.2186667 9.23458716,20.8675 C9.88018349,21.5163333 10.23,22.5136667 10.2840367,23.8566667 C10.3124771,24.6415 10.3238532,25.1855 10.3238532,25.483 C10.3210092,25.755 10.309633,26.2961667 10.2811927,27.1093333 Z" id="Shape"></path></g><g id="Group"><path d="M62.627758,27.3281139 C58.858363,25.1957295 54.5081851,23.9743772 49.8704626,23.9743772 C35.5330961,23.9743772 23.9088968,35.5985765 23.9088968,49.9359431 C23.9088968,54.5736655 25.1302491,58.9238434 27.2626335,62.6932384 C31.7209964,70.5736655 40.1708185,75.8975089 49.8704626,75.8975089 C56.5807829,75.8975089 62.6989324,73.3494662 67.3053381,69.1701068 C67.9231317,68.5893238 68.5238434,67.9914591 69.1017794,67.3736655 C73.2811388,62.7644128 75.8291815,56.6491103 75.8291815,49.9359431 C75.8291815,40.2362989 70.5081851,31.7836299 62.627758,27.3281139 Z M58.1637011,58.6903915 C55.997153,60.7430605 53.0818505,62.0128114 49.8676157,62.0128114 C43.2085409,62.0128114 37.7907473,56.5950178 37.7907473,49.9359431 C37.7907473,43.2768683 43.2085409,37.8590747 49.8676157,37.8590747 C56.5266904,37.8590747 61.944484,43.2768683 61.944484,49.9359431 C61.944484,53.1501779 60.6747331,56.0654804 58.6220641,58.2320285 C58.4740214,58.3886121 58.3202847,58.5423488 58.1637011,58.6903915 Z" id="Shape" fill="url(#linearGradient-1)"></path><g><path d="M49.8676157,37.8676157 C56.5238434,37.8676157 61.93879,43.2825623 61.93879,49.93879 C61.93879,56.5950178 56.5238434,62.0099644 49.8676157,62.0099644 C43.2113879,62.0099644 37.7964413,56.5950178 37.7964413,49.93879 C37.7964413,43.2825623 43.2113879,37.8676157 49.8676157,37.8676157 M49.8676157,23.9800712 C35.5330961,23.9800712 23.9117438,35.6014235 23.9117438,49.9359431 C23.9117438,64.2704626 35.5330961,75.8918149 49.8676157,75.8918149 C64.2021352,75.8918149 75.8234881,64.2704626 75.8234881,49.9359431 C75.8263345,35.6014235 64.2049822,23.9800712 49.8676157,23.9800712 L49.8676157,23.9800712 Z" id="Shape" fill="url(#linearGradient-2)"></path><g><path d="M58.1608541,58.6903915 C58.3174377,58.5423488 58.4711744,58.3886121 58.6192171,58.2320285 C58.4683274,58.3857651 58.3174377,58.5395018 58.1608541,58.6903915 Z" id="Path" fill="#00AEEF"></path><path d="M27.2569395,62.6989324 C19.3964413,58.2291815 14.0782918,49.7850534 14.0782918,40.113879 C14.0782918,25.7964413 25.7281139,14.1466192 40.0455516,14.1466192 C49.716726,14.1466192 58.1637011,19.4647687 62.630605,27.3252669 C70.513879,31.7836299 75.8377224,40.2362989 75.8377224,49.93879 C75.8377224,56.6519573 73.2896797,62.7701068 69.1074733,67.3793594 C75.8007117,60.2505338 79.9060498,50.6647687 79.9060498,40.113879 C79.9060498,18.0982206 62.058363,0.253380783 40.0455516,0.253380783 C18.0298932,0.253380783 0.182206406,18.0982206 0.182206406,40.113879 C0.182206406,62.1295374 18.0298932,79.9743772 40.0427046,79.9743772 C50.5935943,79.9743772 60.1765125,75.8690391 67.3081851,69.1786477 C62.6989324,73.3580071 56.5807829,75.9060498 49.8676157,75.9060498 C40.1679715,75.9060498 31.7124555,70.5822064 27.2569395,62.6989324 Z" id="Path" fill="url(#linearGradient-3)"></path><path d="M23.9003559,49.93879 C23.9003559,54.5793594 25.1217082,58.9295374 27.2540925,62.6989324 C31.0320285,64.8455516 35.3935943,66.0811388 40.0427046,66.0811388 C47.086121,66.0811388 53.4775801,63.2597865 58.1608541,58.6903915 C55.997153,60.7430605 53.0818505,62.0128114 49.8676157,62.0128114 C43.2113879,62.0128114 37.7935943,56.5978648 37.7935943,49.93879 C37.7935943,43.2797153 43.2085409,37.8647687 49.8676157,37.8647687 C56.5266904,37.8647687 61.93879,43.2797153 61.93879,49.93879 C61.93879,53.1501779 60.6690391,56.0654804 58.6163701,58.2320285 C63.1829181,53.5487544 66.0071174,47.1572954 66.0071174,40.113879 C66.0071174,35.4676157 64.7743772,31.1032028 62.627758,27.3252669 C58.858363,25.1928826 54.5081851,23.9715302 49.8676157,23.9715302 C35.5274021,23.9715302 23.9003559,35.5985765 23.9003559,49.93879 Z" id="Path" fill="url(#linearGradient-4)"></path><path d="M69.1074733,67.3793594 C68.5266904,67.997153 67.9288256,68.5978648 67.3081851,69.1786477 C67.9373665,68.6092527 68.5380783,68.0085409 69.1074733,67.3793594 Z" id="Path" fill="#ED1C24"></path><path d="M69.1074733,67.3793594 C73.2896797,62.7701068 75.8377224,56.6519573 75.8377224,49.93879 C75.8377224,40.2362989 70.513879,31.7836299 62.630605,27.3252669 C64.7772242,31.1032028 66.0099644,35.4647687 66.0099644,40.113879 C66.0099644,47.1572954 63.1886121,53.5487544 58.6192171,58.2320285 C58.4711744,58.3886121 58.3174377,58.5423488 58.1608541,58.6903915 C53.4775801,63.2569395 47.086121,66.0811388 40.0427046,66.0811388 C35.3964413,66.0811388 31.0320285,64.8483986 27.2540925,62.6989324 C31.7124555,70.5822064 40.1651246,75.9060498 49.8676157,75.9060498 C56.5807829,75.9060498 62.6989324,73.3580071 67.3081851,69.1786477 C67.9259786,68.5978648 68.5266904,67.997153 69.1074733,67.3793594 Z" id="Path" fill="url(#linearGradient-5)"></path><circle id="Oval" fill="url(#linearGradient-6)" cx="17.5117438" cy="17.2725979" r="12.0740214"></circle><circle id="Oval" fill="url(#linearGradient-7)" cx="36.8683274" cy="36.6291815" r="9.87615658"></circle><circle id="Oval" fill="url(#linearGradient-8)" cx="68.5323843" cy="68.2932384" r="7.59857651"></circle></g></g></g></g></g></g></svg> 