<?xml version="1.0" encoding="utf-8"?>
<!-- Generator: Adobe Illustrator 24.2.0, SVG Export Plug-In . SVG Version: 6.00 Build 0)  -->
<svg version="1.1" xmlns="http://www.w3.org/2000/svg" xmlns:xlink="http://www.w3.org/1999/xlink" x="0px" y="0px"
	 viewBox="0 0 340 138.66" style="enable-background:new 0 0 340 138.66;" xml:space="preserve">
<style type="text/css">
	.st0{fill:#1A428A;}
	.st1{fill:#006937;}
</style>
<g id="Layer_1">
</g>
<g id="Layer_2">
	<g>
		<path class="st0" d="M77.32,26.13h4.94c1.91,0,3.42,0.52,4.53,1.57c1.11,1.05,1.67,2.4,1.67,4.06c0,1.74-0.56,3.1-1.69,4.1
			c-1.13,0.99-2.73,1.49-4.82,1.49h-4.63V26.13z M80.11,28.18v7.1h1.82c1.18,0,2.09-0.33,2.71-0.98c0.63-0.65,0.94-1.51,0.94-2.57
			c0-1.1-0.32-1.97-0.95-2.6c-0.63-0.63-1.54-0.95-2.73-0.95H80.11z"/>
		<path class="st0" d="M97.64,34.99v1.5c-0.91,0.66-2.04,1-3.38,1c-1.33,0-2.4-0.36-3.19-1.07c-0.8-0.72-1.2-1.66-1.2-2.84
			c0-1.16,0.37-2.11,1.12-2.85c0.75-0.74,1.7-1.12,2.86-1.12c1.17,0,2.12,0.39,2.87,1.18c0.75,0.78,1.1,1.83,1.05,3.15h-5.44
			c0.05,0.69,0.29,1.22,0.73,1.59c0.44,0.37,1.03,0.56,1.77,0.56C95.73,36.07,96.66,35.71,97.64,34.99z M92.38,32.68h3.29
			c-0.13-1.1-0.68-1.65-1.65-1.65C93.05,31.02,92.5,31.57,92.38,32.68z"/>
		<path class="st0" d="M101.65,29.76v0.66c0.64-0.55,1.36-0.82,2.17-0.82c0.98,0,1.82,0.37,2.5,1.12c0.68,0.74,1.02,1.66,1.02,2.74
			c0,1.22-0.34,2.19-1.02,2.92s-1.58,1.1-2.71,1.1c-0.7,0-1.35-0.17-1.95-0.52v4.16h-2.38V29.76H101.65z M101.65,31.91v3.48
			c0.45,0.33,0.91,0.5,1.38,0.5c0.58,0,1.04-0.21,1.38-0.62c0.34-0.41,0.51-0.98,0.51-1.68c0-0.72-0.16-1.28-0.47-1.69
			s-0.75-0.6-1.32-0.6C102.65,31.3,102.16,31.5,101.65,31.91z"/>
		<path class="st0" d="M116.64,35.47v1.32c-0.79,0.46-1.54,0.69-2.23,0.69c-0.75,0-1.19-0.28-1.33-0.85
			c-0.83,0.57-1.66,0.85-2.5,0.85c-0.59,0-1.09-0.19-1.5-0.56c-0.41-0.37-0.62-0.81-0.62-1.3c0-0.66,0.21-1.19,0.64-1.6
			c0.43-0.4,1.71-0.93,3.86-1.56c0.05-0.85-0.39-1.27-1.32-1.27c-1.01,0-1.94,0.42-2.79,1.27v-1.94c1-0.62,2.09-0.92,3.28-0.92
			c2.14,0,3.21,0.77,3.21,2.31v3.46c0,0.35,0.13,0.53,0.39,0.53C115.94,35.89,116.23,35.75,116.64,35.47z M112.96,35.5v-1.84
			c-0.8,0.28-1.34,0.53-1.64,0.75c-0.3,0.22-0.45,0.51-0.45,0.85c0,0.22,0.07,0.41,0.22,0.57c0.15,0.16,0.33,0.24,0.55,0.24
			C112.09,36.07,112.53,35.88,112.96,35.5z"/>
		<path class="st0" d="M120.07,29.76v2.17h0.03c0.69-1.55,1.5-2.33,2.42-2.33c0.44,0,0.97,0.23,1.58,0.69l-0.66,2.11
			c-0.59-0.37-1.06-0.56-1.41-0.56c-0.55,0-1.02,0.34-1.39,1.02c-0.38,0.68-0.57,1.08-0.57,1.19v3.28h-2.38v-7.58H120.07z"/>
		<path class="st0" d="M130.76,29.76v1.63H128v3.12c0,0.37,0.1,0.67,0.31,0.89c0.21,0.22,0.49,0.33,0.85,0.33
			c0.49,0,1.02-0.15,1.6-0.44v1.73c-0.76,0.32-1.5,0.47-2.21,0.47c-0.93,0-1.65-0.24-2.17-0.72c-0.51-0.48-0.77-1.19-0.77-2.12
			v-3.25h-1.08v-0.47l3.17-3.55h0.3v2.38H130.76z"/>
		<path class="st0" d="M134.42,29.76v0.97c0.81-0.75,1.69-1.13,2.63-1.13c1.3,0,2.21,0.54,2.73,1.61c0.92-1.08,1.91-1.61,2.99-1.61
			c0.87,0,1.58,0.27,2.14,0.79c0.55,0.53,0.83,1.22,0.83,2.07v4.87h-2.38V32.9c0-0.54-0.12-0.95-0.37-1.25
			c-0.25-0.3-0.59-0.45-1.03-0.45c-0.7,0-1.32,0.43-1.88,1.29v4.85h-2.38v-4.49c0-0.53-0.13-0.94-0.4-1.22
			c-0.26-0.28-0.62-0.43-1.06-0.43c-0.63,0-1.23,0.35-1.82,1.05v5.09h-2.38v-7.58H134.42z"/>
		<path class="st0" d="M155.12,34.99v1.5c-0.91,0.66-2.04,1-3.38,1c-1.33,0-2.4-0.36-3.19-1.07c-0.8-0.72-1.2-1.66-1.2-2.84
			c0-1.16,0.37-2.11,1.12-2.85c0.75-0.74,1.7-1.12,2.86-1.12c1.17,0,2.12,0.39,2.87,1.18c0.75,0.78,1.1,1.83,1.05,3.15h-5.44
			c0.05,0.69,0.29,1.22,0.73,1.59c0.44,0.37,1.03,0.56,1.77,0.56C153.21,36.07,154.14,35.71,155.12,34.99z M149.87,32.68h3.29
			c-0.13-1.1-0.68-1.65-1.65-1.65C150.53,31.02,149.98,31.57,149.87,32.68z"/>
		<path class="st0" d="M159.18,29.76v1.08c0.7-0.82,1.52-1.24,2.46-1.24c0.79,0,1.44,0.25,1.97,0.75s0.79,1.22,0.79,2.16v4.82h-2.38
			v-4.62c0-1.01-0.39-1.52-1.18-1.52c-0.56,0-1.12,0.42-1.66,1.25v4.89h-2.38v-7.58H159.18z"/>
		<path class="st0" d="M171.82,29.76v1.63h-2.76v3.12c0,0.37,0.1,0.67,0.31,0.89s0.49,0.33,0.85,0.33c0.49,0,1.02-0.15,1.6-0.44
			v1.73c-0.76,0.32-1.5,0.47-2.21,0.47c-0.93,0-1.65-0.24-2.17-0.72c-0.51-0.48-0.77-1.19-0.77-2.12v-3.25h-1.08v-0.47l3.17-3.55
			h0.3v2.38H171.82z"/>
		<path class="st0" d="M181.53,29.6c1.19,0,2.19,0.35,3.02,1.04c0.83,0.7,1.24,1.67,1.24,2.91c0,1.25-0.42,2.21-1.26,2.9
			c-0.84,0.69-1.84,1.03-3,1.03c-1.26,0-2.29-0.37-3.09-1.1s-1.2-1.68-1.2-2.85c0-1.19,0.41-2.14,1.22-2.86
			C179.28,29.96,180.3,29.6,181.53,29.6z M181.53,36.07c1.14,0,1.71-0.86,1.71-2.58c0-1.65-0.57-2.47-1.71-2.47
			c-0.55,0-0.97,0.22-1.28,0.65s-0.46,1.06-0.46,1.86C179.79,35.23,180.37,36.07,181.53,36.07z"/>
		<path class="st0" d="M190.11,29.76h1.08v1.63h-1.08v5.95h-2.38v-5.95h-1.08v-1.63h1.08v-0.38c0-1.06,0.3-1.9,0.9-2.5
			c0.6-0.6,1.41-0.9,2.42-0.9c0.25,0,0.73,0.05,1.44,0.14v1.93c-0.5-0.06-0.85-0.1-1.07-0.1c-0.88,0-1.32,0.44-1.32,1.32V29.76z"/>
		<path class="st0" d="M197.16,26.13h4.94c1.91,0,3.42,0.52,4.53,1.57c1.11,1.05,1.66,2.4,1.66,4.06c0,1.74-0.56,3.1-1.69,4.1
			c-1.13,0.99-2.73,1.49-4.82,1.49h-4.63V26.13z M199.95,28.18v7.1h1.82c1.18,0,2.09-0.33,2.71-0.98c0.63-0.65,0.94-1.51,0.94-2.57
			c0-1.1-0.32-1.97-0.95-2.6s-1.54-0.95-2.73-0.95H199.95z"/>
		<path class="st0" d="M217.48,34.99v1.5c-0.91,0.66-2.04,1-3.38,1c-1.33,0-2.4-0.36-3.19-1.07c-0.8-0.72-1.2-1.66-1.2-2.84
			c0-1.16,0.37-2.11,1.12-2.85c0.75-0.74,1.7-1.12,2.87-1.12c1.17,0,2.12,0.39,2.87,1.18c0.75,0.78,1.1,1.83,1.05,3.15h-5.44
			c0.05,0.69,0.29,1.22,0.73,1.59s1.03,0.56,1.77,0.56C215.56,36.07,216.5,35.71,217.48,34.99z M212.22,32.68h3.29
			c-0.13-1.1-0.68-1.65-1.65-1.65C212.89,31.02,212.34,31.57,212.22,32.68z"/>
		<path class="st0" d="M221.88,29.76h1.08v1.63h-1.08v5.95h-2.38v-5.95h-1.08v-1.63h1.08v-0.38c0-1.06,0.3-1.9,0.9-2.5
			c0.6-0.6,1.41-0.9,2.42-0.9c0.25,0,0.73,0.05,1.44,0.14v1.93c-0.5-0.06-0.85-0.1-1.07-0.1c-0.88,0-1.32,0.44-1.32,1.32V29.76z"/>
		<path class="st0" d="M231.34,34.99v1.5c-0.91,0.66-2.04,1-3.38,1c-1.33,0-2.4-0.36-3.19-1.07c-0.8-0.72-1.2-1.66-1.2-2.84
			c0-1.16,0.37-2.11,1.12-2.85c0.75-0.74,1.7-1.12,2.87-1.12c1.17,0,2.12,0.39,2.87,1.18c0.75,0.78,1.1,1.83,1.05,3.15h-5.44
			c0.05,0.69,0.29,1.22,0.73,1.59s1.03,0.56,1.77,0.56C229.43,36.07,230.37,35.71,231.34,34.99z M226.09,32.68h3.29
			c-0.13-1.1-0.68-1.65-1.65-1.65C226.75,31.02,226.21,31.57,226.09,32.68z"/>
		<path class="st0" d="M235.41,29.76v1.08c0.7-0.82,1.52-1.24,2.46-1.24c0.79,0,1.44,0.25,1.97,0.75c0.53,0.5,0.79,1.22,0.79,2.16
			v4.82h-2.38v-4.62c0-1.01-0.39-1.52-1.18-1.52c-0.56,0-1.12,0.42-1.66,1.25v4.89h-2.38v-7.58H235.41z"/>
		<path class="st0" d="M247.81,30.16v1.69c-0.91-0.56-1.75-0.83-2.53-0.83c-0.57,0-0.86,0.19-0.86,0.59c0,0.1,0.06,0.2,0.18,0.3
			c0.12,0.1,0.58,0.31,1.38,0.63s1.37,0.69,1.7,1.11c0.33,0.42,0.5,0.88,0.5,1.37c0,0.79-0.27,1.4-0.8,1.82
			c-0.53,0.43-1.3,0.64-2.29,0.64c-1.02,0-1.92-0.18-2.71-0.55v-1.68c0.97,0.43,1.79,0.64,2.45,0.64c0.77,0,1.16-0.19,1.16-0.56
			c0-0.14-0.07-0.28-0.21-0.41c-0.14-0.13-0.62-0.35-1.43-0.67s-1.37-0.67-1.67-1.05c-0.3-0.38-0.45-0.8-0.45-1.27
			c0-0.69,0.29-1.25,0.86-1.69c0.58-0.43,1.33-0.65,2.28-0.65C246.27,29.6,247.08,29.79,247.81,30.16z"/>
		<path class="st0" d="M257.01,34.99v1.5c-0.91,0.66-2.04,1-3.38,1c-1.33,0-2.4-0.36-3.19-1.07c-0.8-0.72-1.2-1.66-1.2-2.84
			c0-1.16,0.37-2.11,1.12-2.85c0.75-0.74,1.7-1.12,2.87-1.12c1.17,0,2.12,0.39,2.87,1.18c0.75,0.78,1.1,1.83,1.05,3.15h-5.44
			c0.05,0.69,0.29,1.22,0.73,1.59s1.03,0.56,1.77,0.56C255.09,36.07,256.03,35.71,257.01,34.99z M251.75,32.68h3.29
			c-0.13-1.1-0.68-1.65-1.65-1.65C252.42,31.02,251.87,31.57,251.75,32.68z"/>
	</g>
	<g>
		<path class="st0" d="M39.51,45.17H19.58v45.06h18.7c8.29,0,14.77-2.01,19.27-5.98c4.52-3.98,6.81-9.52,6.81-16.47
			c0-6.63-2.25-12.12-6.7-16.31C53.21,47.29,47.11,45.17,39.51,45.17z M31.55,54.23h6.54c4.51,0,8.01,1.21,10.39,3.59
			c2.38,2.38,3.59,5.71,3.59,9.89c0,4.03-1.2,7.32-3.55,9.77c-2.35,2.44-5.82,3.68-10.31,3.68h-6.67V54.23z"/>
		<path class="st0" d="M95.22,63.05c-3.33-2.8-7.43-4.22-12.19-4.22c-4.92,0-9.08,1.47-12.36,4.36c-3.3,2.9-4.98,6.81-4.98,11.61
			c0,4.71,1.64,8.6,4.88,11.56c3.22,2.95,7.42,4.44,12.46,4.44c4.66,0,8.73-1.4,12.11-4.15c3.41-2.78,5.13-6.75,5.13-11.78
			C100.27,69.84,98.57,65.87,95.22,63.05z M83.03,84.25c-4.27,0-6.35-3.09-6.35-9.46c0-3.06,0.58-5.43,1.72-7.04
			c1.12-1.58,2.64-2.35,4.63-2.35c4.19,0,6.23,3.01,6.23,9.21C89.25,81.1,87.22,84.25,83.03,84.25z"/>
		<path class="st0" d="M140.73,51.47c-4.44-4.18-10.54-6.3-18.15-6.3h-19.93v45.06h18.7c8.29,0,14.77-2.01,19.27-5.98
			c4.52-3.98,6.81-9.52,6.81-16.47C147.43,61.15,145.18,55.66,140.73,51.47z M114.63,54.23h6.54c4.51,0,8.01,1.21,10.39,3.59
			c2.38,2.38,3.59,5.71,3.59,9.89c0,4.03-1.2,7.32-3.55,9.77c-2.35,2.44-5.82,3.68-10.31,3.68h-6.67V54.23z"/>
	</g>
	<g>
		<path class="st1" d="M176.71,65.03c-1.97-1.04-4.62-2.17-7.88-3.37c-3.19-1.17-5.2-2.13-5.99-2.84c-0.74-0.67-1.1-1.33-1.1-2.03
			c0-0.91,0.49-1.63,1.5-2.2c1.09-0.62,2.59-0.93,4.47-0.93c3.38,0,8.02,1.31,13.77,3.9l0.7,0.31v-9.7l-0.3-0.13
			c-5.27-2.29-10.36-3.45-15.12-3.45c-5.2,0-9.42,1.21-12.54,3.59c-3.16,2.41-4.77,5.63-4.77,9.56c0,3.02,0.74,5.54,2.2,7.49
			c1.44,1.92,3.17,3.43,5.15,4.46c1.94,1.02,4.59,2.13,7.89,3.31c3.21,1.15,5.25,2.12,6.06,2.89c0.77,0.73,1.14,1.47,1.14,2.26
			c0,0.88,0,3.57-5.97,3.57c-2.47,0-4.84-0.44-7.04-1.32c-2.23-0.89-4.83-2.32-7.73-4.27l-0.77-0.52v10.71l0.25,0.14
			c5.18,2.87,10.61,4.32,16.14,4.32c5.16,0,9.38-1.26,12.56-3.73c3.21-2.51,4.84-5.92,4.84-10.14c0-2.96-0.75-5.44-2.23-7.4
			C180.48,67.61,178.73,66.09,176.71,65.03z"/>
		<polygon class="st1" points="184.93,54.23 200.89,54.23 200.89,90.22 212.86,90.22 212.86,54.23 228.82,54.23 228.82,45.17 
			184.93,45.17 		"/>
		<polygon class="st1" points="243.38,71.55 263.47,71.55 263.47,62.49 243.38,62.49 243.38,54.23 264.45,54.23 264.45,45.17 
			231.41,45.17 231.41,90.22 264.89,90.22 264.89,81.16 243.38,81.16 		"/>
		<polygon class="st1" points="307.21,45.17 293.27,61.25 279.32,45.17 269.07,45.17 269.07,90.22 281.03,90.22 281.03,63.55 
			292.21,76.53 294.32,76.53 305.5,63.55 305.5,90.22 317.47,90.22 317.47,45.17 		"/>
	</g>
	<g>
		<path class="st0" d="M26.38,103.2v1.95c-1.32-0.6-2.38-0.89-3.17-0.89c-0.45,0-0.8,0.08-1.07,0.23c-0.26,0.15-0.4,0.35-0.4,0.6
			c0,0.19,0.1,0.37,0.29,0.54c0.19,0.17,0.66,0.39,1.39,0.67s1.33,0.52,1.77,0.76c0.44,0.23,0.83,0.56,1.15,0.99
			c0.32,0.42,0.48,0.96,0.48,1.61c0,0.92-0.35,1.66-1.05,2.21s-1.63,0.82-2.78,0.82c-1.24,0-2.44-0.32-3.6-0.97v-2.15
			c0.67,0.45,1.26,0.77,1.77,0.98c0.51,0.21,1.06,0.31,1.64,0.31c0.98,0,1.47-0.31,1.47-0.92c0-0.21-0.1-0.41-0.29-0.59
			c-0.2-0.19-0.67-0.41-1.41-0.68c-0.75-0.27-1.34-0.51-1.77-0.74c-0.44-0.23-0.81-0.55-1.13-0.98c-0.32-0.42-0.48-0.97-0.48-1.63
			c0-0.86,0.35-1.55,1.04-2.08c0.69-0.53,1.62-0.79,2.77-0.79C24.06,102.43,25.19,102.69,26.38,103.2z"/>
		<path class="st0" d="M33.37,110.7v1.52c-0.83,0.3-1.59,0.45-2.28,0.45c-1.19,0-2.14-0.32-2.85-0.96
			c-0.71-0.64-1.06-1.48-1.06-2.53c0-1.03,0.36-1.87,1.08-2.54s1.63-1,2.74-1c0.71,0,1.47,0.15,2.27,0.44v1.58
			c-0.59-0.3-1.16-0.45-1.73-0.45c-0.63,0-1.14,0.18-1.52,0.53s-0.57,0.83-0.57,1.42c0,0.6,0.19,1.08,0.56,1.44s0.86,0.55,1.47,0.55
			C31.92,111.16,32.55,111.01,33.37,110.7z"/>
		<path class="st0" d="M33.99,103.6c0-0.32,0.11-0.6,0.34-0.83c0.23-0.23,0.5-0.34,0.82-0.34c0.32,0,0.6,0.11,0.83,0.34
			c0.23,0.23,0.34,0.51,0.34,0.83c0,0.32-0.11,0.59-0.34,0.83c-0.23,0.23-0.51,0.35-0.83,0.35c-0.32,0-0.59-0.12-0.82-0.35
			C34.11,104.2,33.99,103.92,33.99,103.6z M36.23,105.8v6.75h-2.12v-6.75H36.23z"/>
		<path class="st0" d="M43.89,110.45v1.34c-0.81,0.59-1.81,0.89-3.01,0.89c-1.19,0-2.14-0.32-2.85-0.96
			c-0.71-0.64-1.06-1.48-1.06-2.53c0-1.03,0.33-1.88,1-2.54c0.67-0.66,1.52-0.99,2.55-0.99c1.04,0,1.89,0.35,2.56,1.05
			s0.98,1.63,0.93,2.81h-4.85c0.04,0.61,0.26,1.08,0.65,1.41s0.92,0.5,1.57,0.5C42.18,111.41,43.01,111.09,43.89,110.45z
			 M39.2,108.39h2.93c-0.11-0.98-0.6-1.47-1.47-1.47C39.8,106.92,39.31,107.41,39.2,108.39z"/>
		<path class="st0" d="M46.77,105.8v0.96c0.62-0.73,1.36-1.1,2.19-1.1c0.7,0,1.29,0.22,1.75,0.67c0.47,0.45,0.7,1.09,0.7,1.92v4.29
			H49.3v-4.12c0-0.9-0.35-1.35-1.05-1.35c-0.5,0-0.99,0.37-1.48,1.12v4.35h-2.12v-6.75H46.77z"/>
		<path class="st0" d="M58.35,110.7v1.52c-0.83,0.3-1.59,0.45-2.28,0.45c-1.19,0-2.14-0.32-2.85-0.96
			c-0.71-0.64-1.06-1.48-1.06-2.53c0-1.03,0.36-1.87,1.08-2.54s1.63-1,2.74-1c0.71,0,1.47,0.15,2.27,0.44v1.58
			c-0.59-0.3-1.16-0.45-1.73-0.45c-0.63,0-1.14,0.18-1.52,0.53s-0.57,0.83-0.57,1.42c0,0.6,0.19,1.08,0.56,1.44s0.86,0.55,1.47,0.55
			C56.9,111.16,57.53,111.01,58.35,110.7z"/>
		<path class="st0" d="M65.63,110.45v1.34c-0.81,0.59-1.81,0.89-3.01,0.89c-1.19,0-2.14-0.32-2.85-0.96
			c-0.71-0.64-1.06-1.48-1.06-2.53c0-1.03,0.33-1.88,1-2.54c0.67-0.66,1.52-0.99,2.55-0.99c1.04,0,1.89,0.35,2.56,1.05
			s0.98,1.63,0.93,2.81H60.9c0.04,0.61,0.26,1.08,0.65,1.41s0.92,0.5,1.57,0.5C63.92,111.41,64.75,111.09,65.63,110.45z
			 M60.94,108.39h2.93c-0.11-0.98-0.6-1.47-1.47-1.47C61.54,106.92,61.05,107.41,60.94,108.39z"/>
		<path class="st0" d="M69.54,107.49c0-0.35,0.12-0.65,0.38-0.9c0.25-0.25,0.55-0.38,0.9-0.38c0.35,0,0.65,0.12,0.9,0.38
			c0.25,0.25,0.38,0.55,0.38,0.9c0,0.35-0.12,0.65-0.38,0.9c-0.25,0.25-0.55,0.38-0.9,0.38c-0.35,0-0.65-0.13-0.9-0.38
			C69.67,108.14,69.54,107.84,69.54,107.49z"/>
		<path class="st0" d="M83.35,102.56v1.83h-3.62v8.16h-2.49v-8.16h-3.62v-1.83H83.35z"/>
		<path class="st0" d="M88.07,110.45v1.34c-0.81,0.59-1.81,0.89-3.01,0.89c-1.19,0-2.14-0.32-2.85-0.96
			c-0.71-0.64-1.06-1.48-1.06-2.53c0-1.03,0.33-1.88,1-2.54c0.67-0.66,1.52-0.99,2.55-0.99c1.04,0,1.89,0.35,2.56,1.05
			s0.98,1.63,0.93,2.81h-4.85c0.04,0.61,0.26,1.08,0.65,1.41s0.92,0.5,1.57,0.5C86.36,111.41,87.19,111.09,88.07,110.45z
			 M83.38,108.39h2.93c-0.11-0.98-0.6-1.47-1.47-1.47C83.98,106.92,83.49,107.41,83.38,108.39z"/>
		<path class="st0" d="M94.73,110.7v1.52c-0.83,0.3-1.59,0.45-2.28,0.45c-1.19,0-2.14-0.32-2.85-0.96
			c-0.71-0.64-1.06-1.48-1.06-2.53c0-1.03,0.36-1.87,1.08-2.54s1.63-1,2.74-1c0.71,0,1.47,0.15,2.27,0.44v1.58
			c-0.59-0.3-1.16-0.45-1.73-0.45c-0.63,0-1.14,0.18-1.52,0.53s-0.57,0.83-0.57,1.42c0,0.6,0.19,1.08,0.56,1.44s0.86,0.55,1.47,0.55
			C93.27,111.16,93.91,111.01,94.73,110.7z"/>
		<path class="st0" d="M97.57,102.56v4.22h0.03c0.59-0.75,1.3-1.13,2.14-1.13c0.72,0,1.31,0.23,1.78,0.68
			c0.46,0.46,0.7,1.09,0.7,1.9v4.31h-2.12v-3.86c0-0.98-0.36-1.47-1.09-1.47c-0.48,0-0.96,0.34-1.42,1.02v4.31h-2.12v-9.99H97.57z"
			/>
		<path class="st0" d="M105.35,105.8v0.96c0.62-0.73,1.36-1.1,2.19-1.1c0.7,0,1.29,0.22,1.75,0.67c0.47,0.45,0.7,1.09,0.7,1.92v4.29
			h-2.12v-4.12c0-0.9-0.35-1.35-1.05-1.35c-0.5,0-0.99,0.37-1.48,1.12v4.35h-2.12v-6.75H105.35z"/>
		<path class="st0" d="M114.51,105.65c1.06,0,1.96,0.31,2.69,0.93c0.74,0.62,1.1,1.48,1.1,2.59c0,1.11-0.37,1.97-1.12,2.58
			c-0.75,0.61-1.64,0.92-2.67,0.92c-1.12,0-2.04-0.33-2.75-0.98c-0.71-0.65-1.07-1.5-1.07-2.54c0-1.06,0.36-1.91,1.09-2.55
			C112.51,105.97,113.42,105.65,114.51,105.65z M114.51,111.41c1.02,0,1.52-0.77,1.52-2.3c0-1.47-0.51-2.2-1.52-2.2
			c-0.49,0-0.87,0.19-1.14,0.58c-0.27,0.39-0.41,0.94-0.41,1.66C112.96,110.66,113.47,111.41,114.51,111.41z"/>
		<path class="st0" d="M121.16,102.56v9.99h-2.12v-9.99H121.16z"/>
		<path class="st0" d="M125.71,105.65c1.06,0,1.96,0.31,2.69,0.93c0.74,0.62,1.1,1.48,1.1,2.59c0,1.11-0.37,1.97-1.12,2.58
			c-0.75,0.61-1.64,0.92-2.67,0.92c-1.12,0-2.04-0.33-2.75-0.98c-0.71-0.65-1.07-1.5-1.07-2.54c0-1.06,0.36-1.91,1.09-2.55
			C123.71,105.97,124.62,105.65,125.71,105.65z M125.71,111.41c1.02,0,1.52-0.77,1.52-2.3c0-1.47-0.51-2.2-1.52-2.2
			c-0.49,0-0.87,0.19-1.14,0.58c-0.27,0.39-0.41,0.94-0.41,1.66C124.16,110.66,124.68,111.41,125.71,111.41z"/>
		<path class="st0" d="M136.85,105.8v1.42h-0.96c0.22,0.38,0.34,0.76,0.34,1.12c0,0.52-0.2,1.01-0.59,1.45
			c-0.39,0.44-0.97,0.71-1.73,0.79c-0.77,0.08-1.2,0.16-1.3,0.24s-0.15,0.17-0.15,0.29s0.07,0.21,0.2,0.29s0.66,0.15,1.58,0.23
			c0.92,0.08,1.56,0.32,1.92,0.72c0.36,0.4,0.54,0.83,0.54,1.3c0,0.74-0.31,1.3-0.92,1.69c-0.61,0.39-1.5,0.58-2.66,0.58
			c-1.18,0-2.08-0.18-2.69-0.54c-0.61-0.36-0.92-0.83-0.92-1.42c0-0.82,0.6-1.39,1.8-1.72c-0.54-0.16-0.81-0.46-0.81-0.88
			c0-0.5,0.41-0.84,1.23-1.02c-0.55-0.1-1-0.33-1.36-0.71c-0.36-0.38-0.54-0.84-0.54-1.37c0-0.65,0.26-1.22,0.77-1.72
			c0.51-0.5,1.26-0.74,2.24-0.74H136.85z M133.21,114.65c0.45,0,0.82-0.08,1.1-0.25c0.28-0.17,0.42-0.37,0.42-0.6
			c0-0.5-0.55-0.74-1.65-0.74c-0.5,0-0.89,0.07-1.18,0.22c-0.29,0.15-0.43,0.34-0.43,0.58
			C131.47,114.39,132.05,114.65,133.21,114.65z M133.03,107.05c-0.35,0-0.64,0.12-0.87,0.36c-0.24,0.24-0.35,0.53-0.35,0.87
			c0,0.33,0.12,0.61,0.36,0.85c0.24,0.24,0.53,0.36,0.86,0.36c0.33,0,0.62-0.13,0.86-0.38c0.24-0.25,0.36-0.55,0.36-0.91
			c0-0.32-0.12-0.59-0.35-0.82C133.67,107.17,133.38,107.05,133.03,107.05z"/>
		<path class="st0" d="M144.05,105.8l-4.52,9.99h-2.26l1.98-4.34l-2.64-5.65h2.27l1.43,3.48l1.52-3.48H144.05z"/>
		<path class="st0" d="M147.36,107.49c0-0.35,0.12-0.65,0.38-0.9c0.25-0.25,0.55-0.38,0.9-0.38c0.35,0,0.65,0.12,0.9,0.38
			c0.25,0.25,0.38,0.55,0.38,0.9c0,0.35-0.12,0.65-0.38,0.9c-0.25,0.25-0.55,0.38-0.9,0.38c-0.35,0-0.65-0.13-0.9-0.38
			C147.49,108.14,147.36,107.84,147.36,107.49z"/>
		<path class="st0" d="M161.74,110.71v1.83h-7.36v-9.99h7.26v1.83h-4.78v2.09h4.55v1.83h-4.55v2.4H161.74z"/>
		<path class="st0" d="M164.8,105.8v0.96c0.62-0.73,1.36-1.1,2.19-1.1c0.7,0,1.29,0.22,1.75,0.67c0.47,0.45,0.7,1.09,0.7,1.92v4.29
			h-2.12v-4.12c0-0.9-0.35-1.35-1.05-1.35c-0.5,0-0.99,0.37-1.48,1.12v4.35h-2.12v-6.75H164.8z"/>
		<path class="st0" d="M177.36,105.8v1.42h-0.96c0.22,0.38,0.34,0.76,0.34,1.12c0,0.52-0.2,1.01-0.59,1.45
			c-0.39,0.44-0.97,0.71-1.73,0.79c-0.77,0.08-1.2,0.16-1.3,0.24s-0.15,0.17-0.15,0.29s0.07,0.21,0.2,0.29
			c0.13,0.07,0.66,0.15,1.58,0.23c0.92,0.08,1.56,0.32,1.92,0.72c0.36,0.4,0.54,0.83,0.54,1.3c0,0.74-0.31,1.3-0.92,1.69
			s-1.5,0.58-2.66,0.58c-1.18,0-2.08-0.18-2.69-0.54c-0.61-0.36-0.92-0.83-0.92-1.42c0-0.82,0.6-1.39,1.8-1.72
			c-0.54-0.16-0.81-0.46-0.81-0.88c0-0.5,0.41-0.84,1.23-1.02c-0.55-0.1-1-0.33-1.36-0.71c-0.36-0.38-0.54-0.84-0.54-1.37
			c0-0.65,0.26-1.22,0.77-1.72c0.51-0.5,1.26-0.74,2.24-0.74H177.36z M173.71,114.65c0.45,0,0.82-0.08,1.1-0.25
			c0.28-0.17,0.42-0.37,0.42-0.6c0-0.5-0.55-0.74-1.65-0.74c-0.5,0-0.89,0.07-1.18,0.22s-0.43,0.34-0.43,0.58
			C171.97,114.39,172.55,114.65,173.71,114.65z M173.54,107.05c-0.35,0-0.64,0.12-0.87,0.36s-0.35,0.53-0.35,0.87
			c0,0.33,0.12,0.61,0.36,0.85c0.24,0.24,0.53,0.36,0.86,0.36c0.33,0,0.62-0.13,0.86-0.38c0.24-0.25,0.36-0.55,0.36-0.91
			c0-0.32-0.12-0.59-0.35-0.82C174.17,107.17,173.88,107.05,173.54,107.05z"/>
		<path class="st0" d="M177.61,103.6c0-0.32,0.11-0.6,0.34-0.83c0.23-0.23,0.5-0.34,0.82-0.34c0.32,0,0.6,0.11,0.83,0.34
			c0.23,0.23,0.34,0.51,0.34,0.83c0,0.32-0.11,0.59-0.34,0.83c-0.23,0.23-0.5,0.35-0.83,0.35c-0.32,0-0.59-0.12-0.82-0.35
			C177.73,104.2,177.61,103.92,177.61,103.6z M179.85,105.8v6.75h-2.12v-6.75H179.85z"/>
		<path class="st0" d="M183.04,105.8v0.96c0.62-0.73,1.36-1.1,2.19-1.1c0.7,0,1.29,0.22,1.75,0.67c0.47,0.45,0.7,1.09,0.7,1.92v4.29
			h-2.12v-4.12c0-0.9-0.35-1.35-1.05-1.35c-0.5,0-0.99,0.37-1.48,1.12v4.35h-2.12v-6.75H183.04z"/>
		<path class="st0" d="M195.31,110.45v1.34c-0.81,0.59-1.81,0.89-3.01,0.89c-1.19,0-2.13-0.32-2.85-0.96
			c-0.71-0.64-1.06-1.48-1.06-2.53c0-1.03,0.33-1.88,1-2.54c0.67-0.66,1.52-0.99,2.55-0.99c1.04,0,1.89,0.35,2.56,1.05
			s0.98,1.63,0.93,2.81h-4.85c0.04,0.61,0.26,1.08,0.65,1.41s0.92,0.5,1.57,0.5C193.6,111.41,194.43,111.09,195.31,110.45z
			 M190.62,108.39h2.93c-0.12-0.98-0.6-1.47-1.47-1.47C191.22,106.92,190.73,107.41,190.62,108.39z"/>
		<path class="st0" d="M202.65,110.45v1.34c-0.81,0.59-1.81,0.89-3.01,0.89c-1.19,0-2.13-0.32-2.85-0.96
			c-0.71-0.64-1.06-1.48-1.06-2.53c0-1.03,0.33-1.88,1-2.54c0.67-0.66,1.52-0.99,2.55-0.99c1.04,0,1.89,0.35,2.56,1.05
			s0.98,1.63,0.93,2.81h-4.85c0.04,0.61,0.26,1.08,0.65,1.41c0.39,0.33,0.92,0.5,1.57,0.5
			C200.95,111.41,201.78,111.09,202.65,110.45z M197.97,108.39h2.93c-0.12-0.98-0.6-1.47-1.47-1.47
			C198.56,106.92,198.08,107.41,197.97,108.39z"/>
		<path class="st0" d="M205.6,105.8v1.93h0.03c0.61-1.38,1.33-2.07,2.15-2.07c0.39,0,0.86,0.21,1.41,0.61l-0.59,1.88
			c-0.52-0.33-0.94-0.5-1.26-0.5c-0.49,0-0.9,0.3-1.24,0.91s-0.5,0.96-0.5,1.06v2.92h-2.12v-6.75H205.6z"/>
		<path class="st0" d="M209.17,103.6c0-0.32,0.11-0.6,0.34-0.83c0.23-0.23,0.5-0.34,0.82-0.34c0.32,0,0.6,0.11,0.83,0.34
			c0.23,0.23,0.34,0.51,0.34,0.83c0,0.32-0.11,0.59-0.34,0.83c-0.23,0.23-0.51,0.35-0.83,0.35c-0.32,0-0.59-0.12-0.82-0.35
			C209.29,104.2,209.17,103.92,209.17,103.6z M211.41,105.8v6.75h-2.12v-6.75H211.41z"/>
		<path class="st0" d="M214.61,105.8v0.96c0.62-0.73,1.36-1.1,2.19-1.1c0.7,0,1.29,0.22,1.76,0.67c0.47,0.45,0.7,1.09,0.7,1.92v4.29
			h-2.12v-4.12c0-0.9-0.35-1.35-1.05-1.35c-0.5,0-0.99,0.37-1.48,1.12v4.35h-2.12v-6.75H214.61z"/>
		<path class="st0" d="M227.16,105.8v1.42h-0.96c0.22,0.38,0.34,0.76,0.34,1.12c0,0.52-0.2,1.01-0.59,1.45
			c-0.39,0.44-0.97,0.71-1.73,0.79c-0.76,0.08-1.2,0.16-1.3,0.24s-0.15,0.17-0.15,0.29s0.07,0.21,0.2,0.29
			c0.13,0.07,0.66,0.15,1.58,0.23c0.92,0.08,1.56,0.32,1.92,0.72c0.36,0.4,0.54,0.83,0.54,1.3c0,0.74-0.31,1.3-0.92,1.69
			s-1.5,0.58-2.66,0.58c-1.18,0-2.08-0.18-2.69-0.54c-0.61-0.36-0.92-0.83-0.92-1.42c0-0.82,0.6-1.39,1.8-1.72
			c-0.54-0.16-0.81-0.46-0.81-0.88c0-0.5,0.41-0.84,1.23-1.02c-0.55-0.1-1-0.33-1.36-0.71c-0.36-0.38-0.54-0.84-0.54-1.37
			c0-0.65,0.26-1.22,0.77-1.72c0.51-0.5,1.26-0.74,2.25-0.74H227.16z M223.52,114.65c0.45,0,0.82-0.08,1.1-0.25
			c0.28-0.17,0.42-0.37,0.42-0.6c0-0.5-0.55-0.74-1.65-0.74c-0.5,0-0.89,0.07-1.18,0.22s-0.43,0.34-0.43,0.58
			C221.78,114.39,222.36,114.65,223.52,114.65z M223.34,107.05c-0.35,0-0.64,0.12-0.87,0.36s-0.35,0.53-0.35,0.87
			c0,0.33,0.12,0.61,0.36,0.85c0.24,0.24,0.53,0.36,0.86,0.36s0.62-0.13,0.86-0.38c0.24-0.25,0.36-0.55,0.36-0.91
			c0-0.32-0.12-0.59-0.35-0.82C223.98,107.17,223.69,107.05,223.34,107.05z"/>
		<path class="st0" d="M230.65,107.49c0-0.35,0.13-0.65,0.38-0.9c0.25-0.25,0.55-0.38,0.9-0.38c0.35,0,0.65,0.12,0.9,0.38
			c0.25,0.25,0.38,0.55,0.38,0.9c0,0.35-0.12,0.65-0.38,0.9c-0.25,0.25-0.55,0.38-0.9,0.38c-0.35,0-0.65-0.13-0.9-0.38
			S230.65,107.84,230.65,107.49z"/>
		<path class="st0" d="M243.01,106.26l3.21-3.7h2.16v9.99h-2.49v-6.23l-2.7,3.13h-0.37l-2.7-3.13v6.23h-2.49v-9.99h2.16
			L243.01,106.26z"/>
		<path class="st0" d="M256.51,110.88v1.18c-0.71,0.41-1.37,0.62-1.99,0.62c-0.67,0-1.06-0.25-1.19-0.76
			c-0.74,0.5-1.48,0.76-2.22,0.76c-0.52,0-0.97-0.17-1.34-0.5c-0.37-0.33-0.55-0.72-0.55-1.16c0-0.59,0.19-1.06,0.57-1.42
			c0.38-0.36,1.53-0.82,3.44-1.39c0.05-0.75-0.34-1.13-1.17-1.13c-0.9,0-1.73,0.38-2.49,1.13v-1.73c0.89-0.55,1.86-0.82,2.92-0.82
			c1.91,0,2.86,0.68,2.86,2.05v3.08c0,0.32,0.12,0.47,0.35,0.47C255.89,111.26,256.15,111.13,256.51,110.88z M253.24,110.91v-1.64
			c-0.71,0.25-1.2,0.47-1.46,0.67s-0.4,0.45-0.4,0.76c0,0.2,0.07,0.36,0.2,0.51c0.13,0.14,0.3,0.21,0.49,0.21
			C252.46,111.41,252.86,111.25,253.24,110.91z"/>
		<path class="st0" d="M261.51,105.8v1.45h-2.46v2.78c0,0.33,0.09,0.6,0.27,0.79c0.18,0.19,0.44,0.29,0.76,0.29
			c0.44,0,0.91-0.13,1.42-0.39v1.54c-0.68,0.28-1.33,0.42-1.97,0.42c-0.83,0-1.47-0.21-1.93-0.64c-0.46-0.43-0.69-1.06-0.69-1.89
			v-2.9h-0.96v-0.41l2.82-3.16h0.26v2.12H261.51z"/>
		<path class="st0" d="M264.02,102.56v4.22h0.03c0.59-0.75,1.3-1.13,2.14-1.13c0.72,0,1.31,0.23,1.78,0.68
			c0.46,0.46,0.7,1.09,0.7,1.9v4.31h-2.12v-3.86c0-0.98-0.36-1.47-1.09-1.47c-0.48,0-0.96,0.34-1.42,1.02v4.31h-2.12v-9.99H264.02z"
			/>
		<path class="st0" d="M276.26,110.45v1.34c-0.81,0.59-1.81,0.89-3.01,0.89c-1.19,0-2.14-0.32-2.85-0.96
			c-0.71-0.64-1.07-1.48-1.07-2.53c0-1.03,0.33-1.88,1-2.54c0.67-0.66,1.52-0.99,2.55-0.99c1.04,0,1.89,0.35,2.56,1.05
			s0.98,1.63,0.93,2.81h-4.85c0.04,0.61,0.26,1.08,0.65,1.41s0.92,0.5,1.57,0.5C274.55,111.41,275.38,111.09,276.26,110.45z
			 M271.57,108.39h2.93c-0.11-0.98-0.6-1.47-1.46-1.47C272.17,106.92,271.68,107.41,271.57,108.39z"/>
		<path class="st0" d="M279.18,105.8v0.87c0.72-0.67,1.5-1.01,2.35-1.01c1.16,0,1.97,0.48,2.43,1.44c0.82-0.96,1.7-1.44,2.66-1.44
			c0.78,0,1.41,0.24,1.9,0.71c0.49,0.47,0.74,1.09,0.74,1.85v4.34h-2.12v-3.96c0-0.48-0.11-0.85-0.33-1.11
			c-0.22-0.26-0.53-0.4-0.92-0.4c-0.62,0-1.18,0.38-1.68,1.14v4.32h-2.12v-4c0-0.47-0.12-0.83-0.35-1.09
			c-0.24-0.25-0.55-0.38-0.94-0.38c-0.56,0-1.1,0.31-1.62,0.94v4.53h-2.12v-6.75H279.18z"/>
		<path class="st0" d="M297.21,110.88v1.18c-0.71,0.41-1.37,0.62-1.99,0.62c-0.67,0-1.06-0.25-1.19-0.76
			c-0.74,0.5-1.48,0.76-2.22,0.76c-0.52,0-0.97-0.17-1.34-0.5c-0.37-0.33-0.55-0.72-0.55-1.16c0-0.59,0.19-1.06,0.57-1.42
			c0.38-0.36,1.53-0.82,3.44-1.39c0.05-0.75-0.34-1.13-1.17-1.13c-0.9,0-1.73,0.38-2.49,1.13v-1.73c0.89-0.55,1.86-0.82,2.92-0.82
			c1.91,0,2.86,0.68,2.86,2.05v3.08c0,0.32,0.12,0.47,0.35,0.47C296.58,111.26,296.85,111.13,297.21,110.88z M293.93,110.91v-1.64
			c-0.71,0.25-1.2,0.47-1.46,0.67s-0.4,0.45-0.4,0.76c0,0.2,0.07,0.36,0.2,0.51c0.13,0.14,0.3,0.21,0.49,0.21
			C293.16,111.41,293.55,111.25,293.93,110.91z"/>
		<path class="st0" d="M302.2,105.8v1.45h-2.46v2.78c0,0.33,0.09,0.6,0.27,0.79c0.18,0.19,0.44,0.29,0.76,0.29
			c0.44,0,0.91-0.13,1.42-0.39v1.54c-0.68,0.28-1.33,0.42-1.97,0.42c-0.83,0-1.47-0.21-1.93-0.64c-0.46-0.43-0.69-1.06-0.69-1.89
			v-2.9h-0.96v-0.41l2.82-3.16h0.26v2.12H302.2z"/>
		<path class="st0" d="M302.49,103.6c0-0.32,0.11-0.6,0.34-0.83c0.23-0.23,0.5-0.34,0.82-0.34c0.32,0,0.6,0.11,0.83,0.34
			c0.23,0.23,0.34,0.51,0.34,0.83c0,0.32-0.11,0.59-0.34,0.83c-0.23,0.23-0.51,0.35-0.83,0.35c-0.32,0-0.59-0.12-0.82-0.35
			C302.6,104.2,302.49,103.92,302.49,103.6z M304.73,105.8v6.75h-2.12v-6.75H304.73z"/>
		<path class="st0" d="M311.7,110.7v1.52c-0.83,0.3-1.59,0.45-2.28,0.45c-1.19,0-2.14-0.32-2.85-0.96
			c-0.71-0.64-1.07-1.48-1.07-2.53c0-1.03,0.36-1.87,1.08-2.54s1.63-1,2.74-1c0.71,0,1.47,0.15,2.27,0.44v1.58
			c-0.59-0.3-1.16-0.45-1.73-0.45c-0.63,0-1.14,0.18-1.52,0.53c-0.38,0.35-0.57,0.83-0.57,1.42c0,0.6,0.19,1.08,0.56,1.44
			s0.86,0.55,1.47,0.55C310.24,111.16,310.88,111.01,311.7,110.7z"/>
		<path class="st0" d="M317.03,106.15v1.51c-0.81-0.5-1.56-0.74-2.25-0.74c-0.51,0-0.77,0.17-0.77,0.52c0,0.09,0.05,0.18,0.16,0.27
			c0.11,0.09,0.52,0.28,1.23,0.56c0.71,0.29,1.22,0.61,1.52,0.99c0.29,0.37,0.44,0.78,0.44,1.22c0,0.7-0.24,1.24-0.71,1.62
			c-0.48,0.38-1.16,0.57-2.04,0.57c-0.91,0-1.71-0.17-2.42-0.49v-1.49c0.87,0.38,1.59,0.57,2.18,0.57c0.69,0,1.03-0.17,1.03-0.5
			c0-0.13-0.06-0.25-0.19-0.36s-0.55-0.31-1.28-0.6c-0.72-0.28-1.22-0.59-1.49-0.93c-0.27-0.34-0.4-0.72-0.4-1.13
			c0-0.62,0.26-1.12,0.77-1.5c0.51-0.39,1.19-0.58,2.03-0.58C315.65,105.65,316.38,105.82,317.03,106.15z"/>
	</g>
	<g>
		<rect x="264.6" y="32.99" class="st0" width="52.67" height="2"/>
		<rect x="19.26" y="32.99" class="st0" width="52.67" height="2"/>
		<rect x="19.26" y="96.32" class="st0" width="298" height="2"/>
	</g>
</g>
</svg>
